# xmcd
#
# Track frame offsets:
# 150
# 11072
# 21309
# 34454
# 45384
# 57988
# 67275
# 81237
# 90204
# 100786
# 117262
# 130499
#
# Disc length: 1930 seconds
#
#
# Revision: 0
# Processed by: cddbd v1.5.2PL0 Copyright (c) Steve Scherf et al.
# Submitted via: FreeRIP 2.95 
#
DISCID=a107880c
DTITLE=Pirigoso - Limpa Banco
DYEAR=1900
DGENRE=Pop
TTITLE0=São João na Praia
TTITLE1=Pode Chorar
TTITLE2=Limpa Banco
TTITLE3=Mate Doce
TTITLE4=Brincando na Foqueira
TTITLE5=Menina Sapeca
TTITLE6=Arrasta Pé na Tuia
TTITLE7=Tá na Toca
TTITLE8=Namoro dos Velhos
TTITLE9=Gauchada
TTITLE10=Caminho do Brejo
TTITLE11=Sangue Gaucho
EXTD=
EXTT0=Limpa Banco
EXTT1=Arrasta-pé
EXTT2=Balanceado
EXTT3=Rancheira
EXTT4=Polca
EXTT5=Rancheira
EXTT6=Arrasta-pé
EXTT7=Rancheira
EXTT8=Maxice
EXTT9=Balanceado
EXTT10=Maxixe
EXTT11=Balanceado
PLAYORDER=
